<svg width="1440" height="865" viewBox="0 0 1440 865" fill="none" xmlns="http://www.w3.org/2000/svg">
<path d="M-83 44.6917L-29.5333 46.1333C23.9333 47.575 130.867 50.4583 237.8 53.3417C344.733 56.225 451.667 59.1083 558.6 61.9917C665.533 64.875 772.467 67.7583 879.4 70.6417C986.333 73.525 1093.27 76.4083 1200.2 72.0833C1307.13 67.7583 1414.07 56.225 1467.53 50.4583L1521 44.6917V0H1467.53C1414.07 0 1307.13 0 1200.2 0C1093.27 0 986.333 0 879.4 0C772.467 0 665.533 0 558.6 0C451.667 0 344.733 0 237.8 0C130.867 0 23.9333 0 -29.5333 0H-83V44.6917Z" fill="#FE910B"/>
<path d="M-83 191.742L-29.5333 184.534C23.9333 177.325 130.867 162.909 237.8 167.234C344.733 171.559 451.667 194.625 558.6 196.067C665.533 197.509 772.467 177.325 879.4 170.117C986.333 162.909 1093.27 168.675 1200.2 167.234C1307.13 165.792 1414.07 157.142 1467.53 152.817L1521 148.492V41.8086L1467.53 47.5753C1414.07 53.3419 1307.13 64.8753 1200.2 69.2003C1093.27 73.5253 986.333 70.6419 879.4 67.7586C772.467 64.8753 665.533 61.9919 558.6 59.1086C451.667 56.2253 344.733 53.3419 237.8 50.4586C130.867 47.5753 23.9333 44.6919 -29.5333 43.2503L-83 41.8086V191.742Z" fill="#FA8A07"/>
<path d="M-83 252.291L-29.5333 242.199C23.9333 232.107 130.867 211.924 237.8 211.924C344.733 211.924 451.667 232.107 558.6 234.991C665.533 237.874 772.467 223.457 879.4 219.132C986.333 214.807 1093.27 220.574 1200.2 219.132C1307.13 217.691 1414.07 209.041 1467.53 204.716L1521 200.391V145.607L1467.53 149.932C1414.07 154.257 1307.13 162.907 1200.2 164.349C1093.27 165.791 986.333 160.024 879.4 167.232C772.467 174.441 665.533 194.624 558.6 193.182C451.667 191.741 344.733 168.674 237.8 164.349C130.867 160.024 23.9333 174.441 -29.5333 181.649L-83 188.857V252.291Z" fill="#F68205"/>
<path d="M-83 312.842L-29.5333 307.075C23.9333 301.309 130.867 289.775 237.8 288.334C344.733 286.892 451.667 295.542 558.6 298.425C665.533 301.309 772.467 298.425 879.4 294.1C986.333 289.775 1093.27 284.009 1200.2 281.125C1307.13 278.242 1414.07 278.242 1467.53 278.242H1521V197.509L1467.53 201.834C1414.07 206.159 1307.13 214.809 1200.2 216.25C1093.27 217.692 986.333 211.925 879.4 216.25C772.467 220.575 665.533 234.992 558.6 232.109C451.667 229.225 344.733 209.042 237.8 209.042C130.867 209.042 23.9333 229.225 -29.5333 239.317L-83 249.409V312.842Z" fill="#F17B02"/>
<path d="M-83 503.141L-29.5333 504.582C23.9333 506.024 130.867 508.907 237.8 507.466C344.733 506.024 451.667 500.257 558.6 495.932C665.533 491.607 772.467 488.724 879.4 490.166C986.333 491.607 1093.27 497.374 1200.2 503.141C1307.13 508.907 1414.07 514.674 1467.53 517.557L1521 520.441V275.357H1467.53C1414.07 275.357 1307.13 275.357 1200.2 278.241C1093.27 281.124 986.333 286.891 879.4 291.216C772.467 295.541 665.533 298.424 558.6 295.541C451.667 292.657 344.733 284.007 237.8 285.449C130.867 286.891 23.9333 298.424 -29.5333 304.191L-83 309.957V503.141Z" fill="#ED7301"/>
<path d="M-83 555.043L-29.5333 557.926C23.9333 560.809 130.867 566.576 237.8 563.693C344.733 560.809 451.667 549.276 558.6 543.509C665.533 537.743 772.467 537.743 879.4 539.184C986.333 540.626 1093.27 543.509 1200.2 549.276C1307.13 555.043 1414.07 563.693 1467.53 568.018L1521 572.343V517.559L1467.53 514.676C1414.07 511.793 1307.13 506.026 1200.2 500.259C1093.27 494.493 986.333 488.726 879.4 487.284C772.467 485.843 665.533 488.726 558.6 493.051C451.667 497.376 344.733 503.143 237.8 504.584C130.867 506.026 23.9333 503.143 -29.5333 501.701L-83 500.259V555.043Z" fill="#E96B00"/>
<path d="M-83 641.542L-29.5333 645.867C23.9333 650.192 130.867 658.842 237.8 661.725C344.733 664.608 451.667 661.725 558.6 650.192C665.533 638.658 772.467 618.475 879.4 619.917C986.333 621.358 1093.27 644.425 1200.2 658.842C1307.13 673.258 1414.07 679.025 1467.53 681.908L1521 684.792V569.458L1467.53 565.133C1414.07 560.808 1307.13 552.158 1200.2 546.392C1093.27 540.625 986.333 537.742 879.4 536.3C772.467 534.858 665.533 534.858 558.6 540.625C451.667 546.392 344.733 557.925 237.8 560.808C130.867 563.692 23.9333 557.925 -29.5333 555.042L-83 552.158V641.542Z" fill="#E46400"/>
<path d="M-83 831.842H-29.5333C23.9333 831.842 130.867 831.842 237.8 830.4C344.733 828.958 451.667 826.075 558.6 823.192C665.533 820.308 772.467 817.425 879.4 818.867C986.333 820.308 1093.27 826.075 1200.2 826.075C1307.13 826.075 1414.07 820.308 1467.53 817.425L1521 814.542V681.908L1467.53 679.025C1414.07 676.142 1307.13 670.375 1200.2 655.958C1093.27 641.542 986.333 618.475 879.4 617.033C772.467 615.592 665.533 635.775 558.6 647.308C451.667 658.842 344.733 661.725 237.8 658.842C130.867 655.958 23.9333 647.308 -29.5333 642.983L-83 638.658V831.842Z" fill="#E05C00"/>
<path d="M-83 866.442H-29.5333C23.9333 866.442 130.867 866.442 237.8 866.442C344.733 866.442 451.667 866.442 558.6 866.442C665.533 866.442 772.467 866.442 879.4 866.442C986.333 866.442 1093.27 866.442 1200.2 866.442C1307.13 866.442 1414.07 866.442 1467.53 866.442H1521V811.658L1467.53 814.542C1414.07 817.425 1307.13 823.192 1200.2 823.192C1093.27 823.192 986.333 817.425 879.4 815.983C772.467 814.542 665.533 817.425 558.6 820.308C451.667 823.192 344.733 826.075 237.8 827.517C130.867 828.958 23.9333 828.958 -29.5333 828.958H-83V866.442Z" fill="#DB5400"/>
</svg>
